<svg width="auto" height="6419" viewBox="0 0 auto 6419" fill="none" xmlns="http://www.w3.org/2000/svg">
<path opacity="0.3" fill-rule="evenodd" clip-rule="evenodd" d="M1326.99 256.503L1920 330.103V0H1235.56L1217.45 109.999C1205.6 181.932 1254.65 247.524 1326.99 256.503ZM-626.637 1119.68C-698.805 1109.36 -765.672 1159.5 -775.99 1231.67L-953.319 2472.06C-953.857 2475.82 -954.231 2479.57 -954.445 2483.3C-993.525 2502.27 -1023.3 2539.26 -1030.76 2584.51L-1202.55 3627.75C-1214.4 3699.68 -1165.35 3765.28 -1093.01 3774.26L216.032 3936.72C288.378 3945.7 356.629 3894.67 368.475 3822.74L536.854 2800.24C578.816 2783.09 610.829 2744.77 617.708 2696.66L795.037 1456.27C805.354 1384.1 755.214 1317.23 683.047 1306.92L-626.637 1119.68ZM1129.24 559.981C1141.09 488.049 1209.34 437.014 1281.69 445.994L2590.72 608.462C2663.07 617.442 2712.12 683.034 2700.27 754.966L2528.47 1798.21C2516.63 1870.14 2448.38 1921.17 2376.03 1912.19L1066.99 1749.72C994.648 1740.75 945.603 1675.15 957.448 1603.22L1129.24 559.981ZM1033.69 1918.38C961.34 1909.4 893.089 1960.43 881.243 2032.37L709.448 3075.61C697.603 3147.54 746.648 3213.13 818.995 3222.11L2128.03 3384.58C2200.38 3393.56 2268.63 3342.52 2280.47 3270.59L2452.27 2227.35C2464.12 2155.42 2415.07 2089.83 2342.72 2080.85L1033.69 1918.38ZM775.686 3416.81C703.34 3407.83 635.089 3458.87 623.243 3530.8L451.448 4574.04C439.603 4645.97 488.648 4711.56 560.995 4720.54L1870.03 4883.01C1942.38 4891.99 2010.63 4840.96 2022.47 4769.02L2194.27 3725.78C2206.12 3653.85 2157.07 3588.26 2084.72 3579.28L775.686 3416.81ZM362.243 5065.69C374.089 4993.76 442.34 4942.72 514.686 4951.7L1823.72 5114.17C1896.07 5123.15 1945.12 5188.74 1933.27 5260.68L1761.47 6303.92C1749.63 6375.85 1681.38 6426.88 1609.03 6417.9L299.995 6255.44C227.648 6246.46 178.603 6180.86 190.448 6108.93L362.243 5065.69ZM-1136.31 3968.96C-1208.66 3959.98 -1276.91 4011.01 -1288.76 4082.94L-1460.55 5126.18C-1472.4 5198.12 -1423.35 5263.71 -1351.01 5272.69L-41.9681 5435.16C30.3783 5444.13 98.6294 5393.1 110.475 5321.17L282.27 4277.93C294.115 4206 245.07 4140.4 172.723 4131.42L-1136.31 3968.96Z" fill="#D9D9D9"/>
</svg>
